<svg width="80" height="10" viewBox="0 0 80 10" fill="none" xmlns="http://www.w3.org/2000/svg">
<path d="M0.579545 1.21023V0.272727H7.125V1.21023H4.38068V9H3.32386V1.21023H0.579545ZM9.65518 9.15341C9.24041 9.15341 8.86399 9.07528 8.52592 8.91903C8.18786 8.75994 7.91939 8.53125 7.72053 8.23295C7.52166 7.93182 7.42223 7.56818 7.42223 7.14205C7.42223 6.76705 7.49609 6.46307 7.64382 6.23011C7.79155 5.99432 7.98899 5.80966 8.23615 5.67614C8.48331 5.54261 8.75604 5.44318 9.05433 5.37784C9.35547 5.30966 9.65803 5.25568 9.962 5.21591C10.3597 5.16477 10.6822 5.12642 10.9293 5.10085C11.1793 5.07244 11.3612 5.02557 11.4748 4.96023C11.5913 4.89489 11.6495 4.78125 11.6495 4.61932V4.58523C11.6495 4.16477 11.5344 3.83807 11.3043 3.60511C11.0771 3.37216 10.7319 3.25568 10.2688 3.25568C9.78871 3.25568 9.41229 3.3608 9.13956 3.57102C8.86683 3.78125 8.67507 4.00568 8.56428 4.24432L7.60973 3.90341C7.78018 3.50568 8.00746 3.19602 8.29155 2.97443C8.57848 2.75 8.89098 2.59375 9.22905 2.50568C9.56996 2.41477 9.90518 2.36932 10.2347 2.36932C10.445 2.36932 10.6864 2.39489 10.9592 2.44602C11.2347 2.49432 11.5004 2.59517 11.756 2.74858C12.0146 2.90199 12.229 3.13352 12.3995 3.44318C12.57 3.75284 12.6552 4.16761 12.6552 4.6875V9H11.6495V8.11364H11.5984C11.5302 8.25568 11.4165 8.40767 11.2575 8.5696C11.0984 8.73153 10.8867 8.86932 10.6225 8.98295C10.3583 9.09659 10.0359 9.15341 9.65518 9.15341ZM9.80859 8.25C10.2063 8.25 10.5415 8.17188 10.8143 8.01562C11.0898 7.85938 11.2972 7.65767 11.4364 7.41051C11.5785 7.16335 11.6495 6.90341 11.6495 6.63068V5.71023C11.6069 5.76136 11.5131 5.80824 11.3683 5.85085C11.2262 5.89062 11.0614 5.92614 10.8739 5.95739C10.6893 5.9858 10.5089 6.01136 10.3327 6.03409C10.1594 6.05398 10.0188 6.07102 9.91087 6.08523C9.6495 6.11932 9.40518 6.17472 9.17791 6.25142C8.95348 6.32528 8.77166 6.4375 8.63246 6.58807C8.49609 6.7358 8.42791 6.9375 8.42791 7.19318C8.42791 7.54261 8.55717 7.80682 8.8157 7.9858C9.07706 8.16193 9.40803 8.25 9.80859 8.25ZM15.4283 6.61364L15.4112 5.36932H15.6158L18.4794 2.45455H19.7237L16.6726 5.53977H16.5874L15.4283 6.61364ZM14.4908 9V0.272727H15.4964V9H14.4908ZM18.6499 9L16.093 5.76136L16.8089 5.0625L19.9283 9H18.6499ZM23.4929 9.13636C22.8622 9.13636 22.3182 8.99716 21.8608 8.71875C21.4062 8.4375 21.0554 8.04545 20.8082 7.54261C20.5639 7.03693 20.4418 6.44886 20.4418 5.77841C20.4418 5.10795 20.5639 4.51705 20.8082 4.00568C21.0554 3.49148 21.3991 3.09091 21.8395 2.80398C22.2827 2.5142 22.7997 2.36932 23.3906 2.36932C23.7315 2.36932 24.0682 2.42614 24.4006 2.53977C24.733 2.65341 25.0355 2.83807 25.3082 3.09375C25.581 3.34659 25.7983 3.68182 25.9602 4.09943C26.1222 4.51705 26.2031 5.03125 26.2031 5.64205V6.06818H21.1577V5.19886H25.1804C25.1804 4.82955 25.1065 4.5 24.9588 4.21023C24.8139 3.92045 24.6065 3.69176 24.3366 3.52415C24.0696 3.35653 23.7543 3.27273 23.3906 3.27273C22.9901 3.27273 22.6435 3.37216 22.3509 3.57102C22.0611 3.76705 21.8381 4.02273 21.6818 4.33807C21.5256 4.65341 21.4474 4.99148 21.4474 5.35227V5.93182C21.4474 6.42614 21.5327 6.84517 21.7031 7.18892C21.8764 7.52983 22.1165 7.78977 22.4233 7.96875C22.7301 8.14489 23.0866 8.23295 23.4929 8.23295C23.7571 8.23295 23.9957 8.19602 24.2088 8.12216C24.4247 8.04545 24.6108 7.93182 24.767 7.78125C24.9233 7.62784 25.044 7.4375 25.1293 7.21023L26.1009 7.48295C25.9986 7.8125 25.8267 8.10227 25.5852 8.35227C25.3438 8.59943 25.0455 8.79261 24.6903 8.93182C24.3352 9.06818 23.9361 9.13636 23.4929 9.13636ZM30.4347 0.272727H32.5014L34.4915 4.03125H34.5767L36.5668 0.272727H38.6335L35.4503 5.91477V9H33.6179V5.91477L30.4347 0.272727ZM41.1935 9.12784C40.5316 9.12784 39.9592 8.98722 39.4762 8.70597C38.9961 8.42187 38.6254 8.02699 38.364 7.52131C38.1026 7.01278 37.9719 6.4233 37.9719 5.75284C37.9719 5.0767 38.1026 4.4858 38.364 3.98011C38.6254 3.47159 38.9961 3.0767 39.4762 2.79545C39.9592 2.51136 40.5316 2.36932 41.1935 2.36932C41.8555 2.36932 42.4265 2.51136 42.9066 2.79545C43.3896 3.0767 43.7617 3.47159 44.0231 3.98011C44.2844 4.4858 44.4151 5.0767 44.4151 5.75284C44.4151 6.4233 44.2844 7.01278 44.0231 7.52131C43.7617 8.02699 43.3896 8.42187 42.9066 8.70597C42.4265 8.98722 41.8555 9.12784 41.1935 9.12784ZM41.2021 7.72159C41.5032 7.72159 41.7546 7.63636 41.9563 7.46591C42.158 7.29261 42.31 7.05682 42.4123 6.75852C42.5174 6.46023 42.57 6.12074 42.57 5.74006C42.57 5.35938 42.5174 5.01989 42.4123 4.72159C42.31 4.4233 42.158 4.1875 41.9563 4.0142C41.7546 3.84091 41.5032 3.75426 41.2021 3.75426C40.8981 3.75426 40.6424 3.84091 40.435 4.0142C40.2305 4.1875 40.0756 4.4233 39.9705 4.72159C39.8683 5.01989 39.8171 5.35938 39.8171 5.74006C39.8171 6.12074 39.8683 6.46023 39.9705 6.75852C40.0756 7.05682 40.2305 7.29261 40.435 7.46591C40.6424 7.63636 40.8981 7.72159 41.2021 7.72159ZM49.793 6.21307V2.45455H51.6083V9H49.8654V7.81108H49.7972C49.6495 8.1946 49.4038 8.50284 49.06 8.7358C48.7191 8.96875 48.3029 9.08523 47.8114 9.08523C47.3739 9.08523 46.989 8.9858 46.6566 8.78693C46.3242 8.58807 46.0643 8.3054 45.8768 7.93892C45.6921 7.57244 45.5984 7.13352 45.5955 6.62216V2.45455H47.4109V6.2983C47.4137 6.68466 47.5174 6.99006 47.7219 7.21449C47.9265 7.43892 48.2006 7.55114 48.5444 7.55114C48.7631 7.55114 48.9677 7.50142 49.158 7.40199C49.3484 7.29972 49.5018 7.14915 49.6183 6.95028C49.7376 6.75142 49.7958 6.50568 49.793 6.21307ZM53.0604 9V2.45455H54.8203V3.59659H54.8885C55.0078 3.19034 55.2081 2.88352 55.4893 2.67614C55.7706 2.46591 56.0945 2.3608 56.4609 2.3608C56.5518 2.3608 56.6499 2.36648 56.755 2.37784C56.8601 2.3892 56.9524 2.40483 57.032 2.42472V4.03551C56.9467 4.00994 56.8288 3.98722 56.6783 3.96733C56.5277 3.94744 56.3899 3.9375 56.2649 3.9375C55.9979 3.9375 55.7592 3.99574 55.549 4.11222C55.3416 4.22585 55.1768 4.38494 55.0547 4.58949C54.9354 4.79403 54.8757 5.02983 54.8757 5.29688V9H53.0604ZM68.103 3H67.0462C66.9837 2.69602 66.8743 2.42898 66.718 2.19886C66.5646 1.96875 66.3771 1.77557 66.1555 1.61932C65.9368 1.46023 65.6939 1.34091 65.4268 1.26136C65.1598 1.18182 64.8814 1.14205 64.5916 1.14205C64.0632 1.14205 63.5845 1.27557 63.1555 1.54261C62.7294 1.80966 62.3899 2.20312 62.1371 2.72301C61.8871 3.2429 61.7621 3.88068 61.7621 4.63636C61.7621 5.39205 61.8871 6.02983 62.1371 6.54972C62.3899 7.0696 62.7294 7.46307 63.1555 7.73011C63.5845 7.99716 64.0632 8.13068 64.5916 8.13068C64.8814 8.13068 65.1598 8.09091 65.4268 8.01136C65.6939 7.93182 65.9368 7.81392 66.1555 7.65767C66.3771 7.49858 66.5646 7.30398 66.718 7.07386C66.8743 6.84091 66.9837 6.57386 67.0462 6.27273H68.103C68.0234 6.71875 67.8786 7.1179 67.6683 7.47017C67.4581 7.82244 67.1967 8.12216 66.8842 8.36932C66.5717 8.61364 66.2209 8.79972 65.8317 8.92756C65.4453 9.0554 65.032 9.11932 64.5916 9.11932C63.8473 9.11932 63.1854 8.9375 62.6058 8.57386C62.0263 8.21023 61.5703 7.69318 61.2379 7.02273C60.9055 6.35227 60.7393 5.55682 60.7393 4.63636C60.7393 3.71591 60.9055 2.92045 61.2379 2.25C61.5703 1.57955 62.0263 1.0625 62.6058 0.698864C63.1854 0.335227 63.8473 0.153409 64.5916 0.153409C65.032 0.153409 65.4453 0.217329 65.8317 0.34517C66.2209 0.473011 66.5717 0.660511 66.8842 0.90767C67.1967 1.15199 67.4581 1.45028 67.6683 1.80256C67.8786 2.15199 68.0234 2.55114 68.103 3ZM71.6005 9.15341C71.1857 9.15341 70.8093 9.07528 70.4712 8.91903C70.1332 8.75994 69.8647 8.53125 69.6658 8.23295C69.467 7.93182 69.3675 7.56818 69.3675 7.14205C69.3675 6.76705 69.4414 6.46307 69.5891 6.23011C69.7369 5.99432 69.9343 5.80966 70.1815 5.67614C70.4286 5.54261 70.7013 5.44318 70.9996 5.37784C71.3008 5.30966 71.6033 5.25568 71.9073 5.21591C72.305 5.16477 72.6275 5.12642 72.8746 5.10085C73.1246 5.07244 73.3065 5.02557 73.4201 4.96023C73.5366 4.89489 73.5948 4.78125 73.5948 4.61932V4.58523C73.5948 4.16477 73.4798 3.83807 73.2496 3.60511C73.0224 3.37216 72.6772 3.25568 72.2141 3.25568C71.734 3.25568 71.3576 3.3608 71.0849 3.57102C70.8121 3.78125 70.6204 4.00568 70.5096 4.24432L69.555 3.90341C69.7255 3.50568 69.9528 3.19602 70.2369 2.97443C70.5238 2.75 70.8363 2.59375 71.1744 2.50568C71.5153 2.41477 71.8505 2.36932 72.18 2.36932C72.3903 2.36932 72.6317 2.39489 72.9045 2.44602C73.18 2.49432 73.4457 2.59517 73.7013 2.74858C73.9599 2.90199 74.1744 3.13352 74.3448 3.44318C74.5153 3.75284 74.6005 4.16761 74.6005 4.6875V9H73.5948V8.11364H73.5437C73.4755 8.25568 73.3619 8.40767 73.2028 8.5696C73.0437 8.73153 72.832 8.86932 72.5678 8.98295C72.3036 9.09659 71.9812 9.15341 71.6005 9.15341ZM71.7539 8.25C72.1516 8.25 72.4869 8.17188 72.7596 8.01562C73.0352 7.85938 73.2425 7.65767 73.3817 7.41051C73.5238 7.16335 73.5948 6.90341 73.5948 6.63068V5.71023C73.5522 5.76136 73.4585 5.80824 73.3136 5.85085C73.1715 5.89062 73.0067 5.92614 72.8192 5.95739C72.6346 5.9858 72.4542 6.01136 72.2781 6.03409C72.1048 6.05398 71.9641 6.07102 71.8562 6.08523C71.5948 6.11932 71.3505 6.17472 71.1232 6.25142C70.8988 6.32528 70.717 6.4375 70.5778 6.58807C70.4414 6.7358 70.3732 6.9375 70.3732 7.19318C70.3732 7.54261 70.5025 7.80682 70.761 7.9858C71.0224 8.16193 71.3533 8.25 71.7539 8.25ZM76.4361 9V2.45455H77.4077V3.44318H77.4759C77.5952 3.11932 77.8111 2.85653 78.1236 2.65483C78.4361 2.45312 78.7884 2.35227 79.1804 2.35227C79.2543 2.35227 79.3466 2.35369 79.4574 2.35653C79.5682 2.35937 79.652 2.36364 79.7088 2.36932V3.39205C79.6747 3.38352 79.5966 3.37074 79.4744 3.35369C79.3551 3.33381 79.2287 3.32386 79.0952 3.32386C78.777 3.32386 78.4929 3.39062 78.2429 3.52415C77.9957 3.65483 77.7997 3.83665 77.6548 4.0696C77.5128 4.29972 77.4418 4.5625 77.4418 4.85795V9H76.4361Z" fill="#0F172A"/>
</svg>
